HIERARCHY
ROOT Hips
{
    OFFSET 0.000000 0.000000 0.000000
    CHANNELS 6 Xposition Yposition Zposition Zrotation Xrotation Yrotation
    JOINT Spine
    {
        OFFSET -0.000000 7.814340 0.000000
        CHANNELS 3 Zrotation Xrotation Yrotation
        JOINT Spine1
        {
            OFFSET -0.000000 23.378139 0.000000
            CHANNELS 3 Zrotation Xrotation Yrotation
            JOINT Neck
            {
                OFFSET -0.000000 23.282129 2.116557
                CHANNELS 3 Zrotation Xrotation Yrotation
                JOINT Head
                {
                    OFFSET -0.000000 13.341557 -1.905937
                    CHANNELS 3 Zrotation Xrotation Yrotation
                    End Site
                    {
                        OFFSET -0.000000 23.824207 0.000000
                    }
                }
            }
            JOINT LeftShoulder
            {
                OFFSET 3.824717 21.491646 -0.175476
                CHANNELS 3 Zrotation Xrotation Yrotation
                JOINT LeftArm
                {
                    OFFSET 10.823906 0.000000 0.000000
                    CHANNELS 3 Zrotation Xrotation Yrotation
                    JOINT LeftForeArm
                    {
                        OFFSET 28.535641 0.000000 0.000000
                        CHANNELS 3 Zrotation Xrotation Yrotation
                        JOINT LeftHand
                        {
                            OFFSET 24.531507 0.000000 0.000000
                            CHANNELS 3 Zrotation Xrotation Yrotation
                            End Site
                            {
                                OFFSET 14.294524 0.000000 0.000000
                            }
                        }
                    }
                }
            }
            JOINT RightShoulder
            {
                OFFSET -3.770332 21.491646 -0.175476
                CHANNELS 3 Zrotation Xrotation Yrotation
                JOINT RightArm
                {
                    OFFSET -10.823906 0.000000 0.000000
                    CHANNELS 3 Zrotation Xrotation Yrotation
                    JOINT RightForeArm
                    {
                        OFFSET -28.535641 0.000000 0.000000
                        CHANNELS 3 Zrotation Xrotation Yrotation
                        JOINT RightHand
                        {
                            OFFSET -24.531507 0.000000 0.000000
                            CHANNELS 3 Zrotation Xrotation Yrotation
                            End Site
                            {
                                OFFSET -14.294524 0.000000 0.000000
                            }
                        }
                    }
                }
            }
        }
    }
    JOINT LeftUpLeg
    {
        OFFSET 9.529683 0.000000 0.000000
        CHANNELS 3 Zrotation Xrotation Yrotation
        JOINT LeftLeg
        {
            OFFSET -0.000000 -40.188419 0.000000
            CHANNELS 3 Zrotation Xrotation Yrotation
            JOINT LeftFoot
            {
                OFFSET -0.000000 -39.995377 0.000000
                CHANNELS 3 Zrotation Xrotation Yrotation
                JOINT LeftToeBase
                {
                    OFFSET -0.000000 -6.194294 14.294524
                    CHANNELS 3 Zrotation Xrotation Yrotation
                    End Site
                    {
                        OFFSET -0.000000 0.000000 3.811873
                    }
                }
            }
        }
    }
    JOINT RightUpLeg
    {
        OFFSET -9.529683 0.000000 0.000000
        CHANNELS 3 Zrotation Xrotation Yrotation
        JOINT RightLeg
        {
            OFFSET -0.000000 -40.188419 0.000000
            CHANNELS 3 Zrotation Xrotation Yrotation
            JOINT RightFoot
            {
                OFFSET -0.000000 -39.995377 0.000000
                CHANNELS 3 Zrotation Xrotation Yrotation
                JOINT RightToeBase
                {
                    OFFSET -0.000000 -6.194294 14.294524
                    CHANNELS 3 Zrotation Xrotation Yrotation
                    End Site
                    {
                        OFFSET -0.000000 0.000000 3.811873
                    }
                }
            }
        }
    }
}
MOTION
Frames:    4
Frame Time:    0.004000
-1.717326    83.696281    -68.395828    6.131258    1.658786    -2.413760    -3.813711    -3.483174    5.164434    -4.848196    -1.397744    5.221142    5.110216    16.987526    -2.715054    -2.465635    4.713878    -3.043345    -16.542604    28.073444    13.718579    -39.735367    35.812016    -28.211199    -0.884192    -12.699183    -12.521396    -2.459597    -12.812454    0.896635    12.676087    28.027700    2.626173    32.245464    30.340773    35.222385    -7.141400    -19.173239    19.247744    -3.814465    -18.205612    5.759294    -11.127674    -19.792534    -6.497248    0.924102    20.277918    -1.018610    9.496528    -6.595451    9.790529    0.000000    0.000000    0.000000    -7.958537    4.697113    -10.363839    -14.473315    43.574680    3.364524    8.154784    9.792064    16.967546    0.000000    0.000000    0.000000    
-1.640168    83.809280    -67.870697    6.182240    1.581527    -2.460190    -3.846464    -3.439031    5.077996    -4.864484    -1.293254    5.138458    5.115400    16.933039    -2.612464    -2.519783    4.665172    -2.945778    -16.557550    28.069262    13.790287    -39.735855    35.745029    -28.233088    -0.974652    -12.762059    -12.701791    -2.041648    -12.882681    0.860560    12.758395    28.067987    2.608352    32.450928    29.979616    35.144020    -6.890018    -18.722597    19.169153    -2.998837    -17.765980    6.050017    -11.193958    -19.129848    -6.599456    0.857336    19.857836    -0.809199    9.514902    -6.722530    9.794945    0.000000    0.000000    0.000000    -8.069213    3.935568    -10.516926    -14.824498    44.627716    3.278199    8.172851    9.028623    16.266499    0.000000    0.000000    0.000000    
-1.565682    83.918625    -67.349518    6.229062    1.503325    -2.502609    -3.889835    -3.391940    4.991882    -4.798690    -1.208322    5.056344    5.013422    16.927971    -2.517018    -2.553703    4.594031    -2.852364    -16.580091    27.993668    13.818319    -39.762402    35.780945    -28.177748    -1.028907    -12.905895    -12.903861    -1.864508    -13.030277    0.700042    12.758627    28.063677    2.613898    32.475174    30.190256    35.088020    -6.896800    -18.658020    19.256308    -2.795150    -17.678949    5.810909    -11.330117    -18.428429    -6.559267    1.005686    19.358545    -0.630033    9.548930    -6.863253    9.600814    0.000000    0.000000    0.000000    -8.187856    3.195022    -10.644980    -15.121311    45.627369    3.131472    8.393330    8.368989    15.668129    0.000000    0.000000    0.000000    
-1.495320    84.026306    -66.831993    6.249290    1.440305    -2.566366    -3.881783    -3.367879    4.910023    -4.796914    -1.081149    4.978793    5.010494    16.871653    -2.405679    -2.696258    4.523836    -2.755559    -16.608421    27.961193    13.821671    -39.555561    36.161831    -28.235737    -0.881252    -13.447371    -13.206926    -1.574292    -13.557185    0.804018    12.817185    28.047285    2.607316    32.513462    30.282598    35.052353    -6.895550    -18.379642    19.216507    -2.261001    -17.373758    5.707769    -11.333976    -17.899721    -6.119393    0.991951    19.172691    -0.934110    9.743145    -7.029751    9.746819    0.000000    0.000000    0.000000    -8.285168    2.406033    -10.636077    -15.239231    46.680935    2.955894    8.357351    7.484418    14.961013    0.000000    0.000000    0.000000    
